<?xml version="1.0" encoding="UTF-8"?>
<svg version="1.1" xmlns="http://www.w3.org/2000/svg" width="230" height="158">
<path d="M0 0 C75.9 0 151.8 0 230 0 C230 52.14 230 104.28 230 158 C154.1 158 78.2 158 0 158 C0 105.86 0 53.72 0 0 Z " fill="#000000" transform="translate(0,0)"/>
<path d="M0 0 C1.32 0 2.64 0 4 0 C3.67 4.95 3.34 9.9 3 15 C4.65 15.66 6.3 16.32 8 17 C7.9071875 16.40832031 7.814375 15.81664062 7.71875 15.20703125 C7.48144913 12.60943421 7.42801742 10.552579 8 8 C10.34888006 5.65111994 12.92603256 4.22835245 16 3 C16.66 3 17.32 3 18 3 C18.33 2.01 18.66 1.02 19 0 C19.99 0.33 20.98 0.66 22 1 C22 1.66 22 2.32 22 3 C23.32 3 24.64 3 26 3 C26 3.66 26 4.32 26 5 C26.71027344 5.20496094 27.42054687 5.40992188 28.15234375 5.62109375 C29.07144531 5.89050781 29.99054688 6.15992188 30.9375 6.4375 C31.85402344 6.70433594 32.77054687 6.97117187 33.71484375 7.24609375 C36 8 36 8 37 9 C37 6.36 37 3.72 37 1 C38.32 1 39.64 1 41 1 C40.67 8.26 40.34 15.52 40 23 C49.9 26.96 59.8 30.92 70 35 C69.01 30.05 69.01 30.05 68 25 C68 23.35 68 21.7 68 20 C63.71 19.01 59.42 18.02 55 17 C55 15.68 55 14.36 55 13 C60.35446567 14.23076581 65.47789167 15.80920036 70 19 C72.32338956 23.76412202 72.04640508 28.80263131 72 34 C78.06769008 36.24213182 82.64136066 37.23455748 89.04296875 36.203125 C91.80871432 35.91606159 93.54230515 36.77115257 96 38 C98.32748694 38.68679942 100.65986656 39.35761043 103 40 C103 40.99 103 41.98 103 43 C101.68 43 100.36 43 99 43 C99 42.34 99 41.68 99 41 C95.34523516 40.24754842 91.68154028 39.60679127 88 39 C88.72703125 39.30292969 89.4540625 39.60585937 90.203125 39.91796875 C91.20859375 40.33691406 92.2140625 40.75585938 93.25 41.1875 C94.88388672 41.86232422 94.88388672 41.86232422 96.55078125 42.55078125 C98.80987871 43.49996037 101.05804878 44.47568267 103.29296875 45.48046875 C104.33066406 45.94066406 105.36835938 46.40085938 106.4375 46.875 C107.38496094 47.30554688 108.33242187 47.73609375 109.30859375 48.1796875 C112.3714073 49.11320106 113.98323678 49.00386289 117 48 C117.99 47.01 117.99 47.01 119 46 C123.34906427 46.32823127 127.0342632 47.19739236 131 49 C131 49.66 131 50.32 131 51 C130.29875 50.855625 129.5975 50.71125 128.875 50.5625 C127.92625 50.376875 126.9775 50.19125 126 50 C124.4840625 49.62875 124.4840625 49.62875 122.9375 49.25 C119.31888058 48.94203239 118.76208046 49.86161513 116 52 C112.06898986 51.54235874 108.6158178 50.15776644 104.96484375 48.6796875 C103.82595703 48.22722656 102.68707031 47.77476563 101.51367188 47.30859375 C99.12348758 46.3504314 96.73546571 45.3868576 94.34960938 44.41796875 C92.64321289 43.74314453 92.64321289 43.74314453 90.90234375 43.0546875 C89.86585693 42.63687012 88.82937012 42.21905273 87.76147461 41.78857422 C85.13956803 40.784021 85.13956803 40.784021 83.05439758 41.52096558 C79.48641898 42.35292945 76.29692338 40.47657902 73.015625 39.140625 C71.85398834 38.68305817 71.85398834 38.68305817 70.66888428 38.21624756 C68.1916666 37.23785904 65.72086319 36.24431308 63.25 35.25 C61.60197224 34.59532178 59.95353852 33.94166451 58.3046875 33.2890625 C55.96583878 32.36297825 53.62766259 31.43550709 51.2925415 30.50006104 C46.55145037 28.60095111 41.78775863 26.77838739 37 25 C37 23.02 37 21.04 37 19 C33.82955897 20.2172229 31.33157507 21.49969253 29 24 C28.27908985 28.07632284 28.52940341 31.90188799 29 36 C29.78375 35.649375 30.5675 35.29875 31.375 34.9375 C32.24125 34.628125 33.1075 34.31875 34 34 C34.66 34.33 35.32 34.66 36 35 C36 34.01 36 33.02 36 32 C37.98 32.495 37.98 32.495 40 33 C40 33.66 40 34.32 40 35 C40.99 35 41.98 35 43 35 C43.33 35.99 43.66 36.98 44 38 C46.83977843 39.63697972 49.7487657 40.59079292 53 41 C53.825 40.34 54.65 39.68 55.5 39 C56.325 38.34 57.15 37.68 58 37 C59.91529846 37.34544373 59.91529846 37.34544373 62.12719727 38.16967773 C62.92964874 38.46292938 63.73210022 38.75618103 64.55886841 39.05831909 C65.36444183 39.36907379 66.17001526 39.67982849 67 40 C67.70607391 40.26587921 68.41214783 40.53175842 69.13961792 40.80569458 C71.25558839 41.61413182 73.36103536 42.44560342 75.46484375 43.28515625 C76.22422745 43.58691269 76.98361115 43.88866913 77.76600647 44.1995697 C79.35210911 44.83100078 80.93767177 45.46378984 82.52270508 46.09790039 C84.95368471 47.06896505 87.387872 48.03167184 89.82226562 48.99414062 C91.36999335 49.61147376 92.91752666 50.2292946 94.46484375 50.84765625 C95.19186996 51.13415543 95.91889618 51.4206546 96.66795349 51.71583557 C101.77113745 53.77113745 101.77113745 53.77113745 104 56 C104.125 59.625 104.125 59.625 104 63 C104.639375 63.103125 105.27875 63.20625 105.9375 63.3125 C110.06477326 64.23903073 114.00642949 65.61660629 118 67 C118 67.99 118 68.98 118 70 C114.55643629 69.27202572 111.51785597 68.00469621 108.3125 66.5625 C107.33925781 66.13066406 106.36601562 65.69882813 105.36328125 65.25390625 C103 64 103 64 102 62 C101.960008 60.00039988 101.95653201 57.99952758 102 56 C100.29263672 55.46826172 100.29263672 55.46826172 98.55078125 54.92578125 C93.96669096 53.40074319 89.51163277 51.62157954 85.04296875 49.79296875 C83.58660083 49.20114164 82.13022041 48.60934528 80.67382812 48.01757812 C78.41481206 47.0987024 76.15815634 46.17529206 73.90649414 45.23852539 C71.70749588 44.32577393 69.50131797 43.43281207 67.29296875 42.54296875 C66.62001266 42.25769821 65.94705658 41.97242767 65.25370789 41.67851257 C61.45998586 40.14696753 61.45998586 40.14696753 57.54418945 40.84106445 C57.03460693 41.22351318 56.52502441 41.60596191 56 42 C61.2573615 44.78263819 66.2834019 47.12848233 72 48.8125 C74.80859375 49.765625 74.80859375 49.765625 77 51 C77.85689824 53.09748226 78.04715663 54.92017699 78.2890625 57.1640625 C78.85875401 59.23596379 78.85875401 59.23596379 81.2109375 60.1484375 C83.79664447 60.89673665 86.35962602 61.4821957 89 62 C89.99 62.33 90.98 62.66 92 63 C91.67 64.32 91.34 65.64 91 67 C90.01 67 89.02 67 88 67 C88 66.34 88 65.68 88 65 C87.38511719 64.80664062 86.77023438 64.61328125 86.13671875 64.4140625 C85.32847656 64.15367188 84.52023438 63.89328125 83.6875 63.625 C82.88699219 63.36976562 82.08648437 63.11453125 81.26171875 62.8515625 C79 62 79 62 76 60 C75.29947539 57.336937 75.22255182 54.75964263 75 52 C74.34 51.90074219 73.68 51.80148438 73 51.69921875 C70.55371372 51.12905567 68.49783096 50.45653678 66.1875 49.51953125 C65.50429687 49.24302734 64.82109375 48.96652344 64.1171875 48.68164062 C62.7015767 48.10050889 61.29007265 47.50927457 59.8828125 46.90820312 C56.60338912 45.59952757 54.59561091 44.84219548 51.125 45.76171875 C50.42375 46.17035156 49.7225 46.57898438 49 47 C48.01 47.495 48.01 47.495 47 48 C44.375 47.0625 44.375 47.0625 42 46 C42.11214844 46.76441406 42.22429687 47.52882812 42.33984375 48.31640625 C42.17162109 49.64478516 42.17162109 49.64478516 42 51 C39.62890625 52.52734375 39.62890625 52.52734375 36.5625 53.9375 C33.45291333 55.57482376 33.45291333 55.57482376 31 58 C29.73732985 62.71948843 29.71030098 67.14248852 30 72 C30.64453125 72.16242188 31.2890625 72.32484375 31.953125 72.4921875 C34 74 34 74 34.609375 77.6953125 C34.67585292 79.17112237 34.72193879 80.64796017 34.75 82.125 C34.77964844 82.87910156 34.80929688 83.63320312 34.83984375 84.41015625 C34.91057932 86.27285953 34.95754983 88.13643755 35 90 C33.68 90 32.36 90 31 90 C31.33 84.72 31.66 79.44 32 74 C31.34 74 30.68 74 30 74 C29.99466381 78.20034027 30.02830478 82.39803956 30.09765625 86.59765625 C30.11579322 88.02529505 30.12338884 89.45310912 30.12011719 90.88085938 C30.11725269 92.93757048 30.1526251 94.99066592 30.1953125 97.046875 C30.20578613 98.28276367 30.21625977 99.51865234 30.22705078 100.79199219 C30.70093576 104.27755954 30.70093576 104.27755954 34 106.19140625 C34.99 106.78824219 35.98 107.38507813 37 108 C37.62203223 111.00749566 37.88560211 113.24960366 37.875 116.25 C37.895625 116.99507813 37.91625 117.74015625 37.9375 118.5078125 C37.98442939 120.33805864 37.99574223 122.16915725 38 124 C36.68 124 35.36 124 34 124 C34.06960937 122.96359375 34.13921875 121.9271875 34.2109375 120.859375 C34.26722764 119.48964826 34.32182648 118.11985127 34.375 116.75 C34.42527344 116.06808594 34.47554688 115.38617188 34.52734375 114.68359375 C34.6568371 112.38365363 34.6568371 112.38365363 34 109 C33.01378662 108.42048584 32.02757324 107.84097168 31.01147461 107.24389648 C28 105 28 105 27.24291992 101.5324707 C27.20889326 100.16399089 27.20648708 98.79447394 27.23046875 97.42578125 C27.21913406 96.70134323 27.20779938 95.97690521 27.19612122 95.23051453 C27.16544348 92.92377616 27.17523324 90.61937298 27.1875 88.3125 C27.17334519 85.9956698 27.151012 83.67907926 27.12532043 81.36235046 C27.11224641 79.92230883 27.1075471 78.482163 27.11186218 77.04206848 C27.40087645 73.73908411 27.40087645 73.73908411 26 71 C25.91224395 68.85441173 25.89304781 66.70595579 25.90234375 64.55859375 C25.90717773 62.60083008 25.90717773 62.60083008 25.91210938 60.60351562 C25.92046599 59.2148431 25.92893095 57.82617123 25.9375 56.4375 C25.94251334 55.04492344 25.94707653 53.65234519 25.95117188 52.25976562 C25.96300566 48.8398013 25.9794912 45.41992156 26 42 C25.40703125 42.33773437 24.8140625 42.67546875 24.203125 43.0234375 C21.19622564 44.35628296 19.14248224 43.71420051 16 43 C17.09304416 44.23604114 17.09304416 44.23604114 19.51879883 44.89672852 C22 47 22 47 22.48422241 49.10006714 C22.68204294 51.96104608 22.71881893 54.78445719 22.69921875 57.65234375 C22.70637405 58.70402237 22.71352936 59.75570099 22.72090149 60.83924866 C22.72868897 63.06429188 22.72364433 65.2894113 22.70678711 67.5144043 C22.68758803 70.92187628 22.72690282 74.32525776 22.77148438 77.73242188 C22.77177477 79.8932316 22.76863382 82.05404507 22.76171875 84.21484375 C22.78464241 85.7446714 22.78464241 85.7446714 22.80802917 87.30540466 C22.76348042 90.006432 22.67995782 92.38491522 22 95 C18.98901367 97.44458008 18.98901367 97.44458008 16 99 C15.53788135 101.89594351 15.415253 103.90497024 15.625 106.75 C15.65207031 107.44738281 15.67914063 108.14476562 15.70703125 108.86328125 C15.77745217 110.57685705 15.88507087 112.28883302 16 114 C14.68 114 13.36 114 12 114 C12.00601833 111.41211799 12.05340953 108.83620571 12.125 106.25 C12.12113281 105.15558594 12.12113281 105.15558594 12.1171875 104.0390625 C12.1953125 101.890625 12.1953125 101.890625 13 98 C13.99 97.47535156 14.98 96.95070313 16 96.41015625 C19.11981658 94.38937374 19.11981658 94.38937374 19.57199097 91.87200928 C19.79187842 89.08316186 19.83050075 86.34436853 19.8046875 83.546875 C19.82524704 82.02383759 19.82524704 82.02383759 19.84622192 80.47003174 C19.88358858 77.22957318 19.87980238 73.99064382 19.875 70.75 C19.89312201 68.55205931 19.91392312 66.35413895 19.9375 64.15625 C19.98941295 58.77068318 20.0075517 53.38579397 20 48 C18.35 47.34 16.7 46.68 15 46 C15.02618408 46.7113208 15.05236816 47.4226416 15.0793457 48.15551758 C15.18319396 51.37428759 15.24828758 54.5927058 15.3125 57.8125 C15.35439453 58.93205078 15.39628906 60.05160156 15.43945312 61.20507812 C15.45556641 62.27822266 15.47167969 63.35136719 15.48828125 64.45703125 C15.51446533 65.44678955 15.54064941 66.43654785 15.56762695 67.45629883 C15 70 15 70 12.59448242 71.84643555 C10 73 10 73 8 73 C8 76.96 8 80.92 8 85 C8.66 85 9.32 85 10 85 C9.01 86.98 9.01 86.98 8 89 C6.515 88.505 6.515 88.505 5 88 C5 87.01 5 86.02 5 85 C5.66 85 6.32 85 7 85 C6.95359375 84.09636719 6.9071875 83.19273438 6.859375 82.26171875 C6.82328125 81.08222656 6.7871875 79.90273437 6.75 78.6875 C6.70359375 77.51574219 6.6571875 76.34398438 6.609375 75.13671875 C7 72 7 72 8.890625 70.08203125 C11 69 11 69 13 69 C12.9482668 64.89479191 12.85322236 60.79171087 12.75 56.6875 C12.73582031 55.52025391 12.72164063 54.35300781 12.70703125 53.15039062 C12.67480469 52.03212891 12.64257812 50.91386719 12.609375 49.76171875 C12.5779541 48.2142395 12.5779541 48.2142395 12.54589844 46.63549805 C12.22538212 43.88539052 12.22538212 43.88539052 10.13232422 42.10913086 C7.98455133 40.71574914 7.98455133 40.71574914 5.2734375 41.4921875 C1.15911953 43.3873268 -2.57405064 45.67122257 -6.375 48.125 C-7.11105469 48.59292969 -7.84710938 49.06085938 -8.60546875 49.54296875 C-10.40730078 50.68958913 -12.20416431 51.84401076 -14 53 C-12.25877451 54.03572896 -10.50663405 55.0531252 -8.75 56.0625 C-7.77546875 56.63097656 -6.8009375 57.19945312 -5.796875 57.78515625 C-3.16845902 59.19688156 -3.16845902 59.19688156 -0.8046875 58.78125 C1.60049382 57.74004597 3.76021687 56.35565821 6 55 C6.66 55 7.32 55 8 55 C8 54.01 8 53.02 8 52 C9.98 52.495 9.98 52.495 12 53 C10.99519595 55.74037467 10.43828635 56.79303145 7.75 58.0625 C6.8425 58.371875 5.935 58.68125 5 59 C4.030625 59.5775 3.06125 60.155 2.0625 60.75 C-1 62 -1 62 -4.0625 61.375 C-7 60 -7 60 -9.5625 58.3125 C-11.88739943 56.8001326 -11.88739943 56.8001326 -14.375 57.0625 C-17.86242401 58.30800857 -20.8027463 60.12990821 -24 62 C-24.66 62 -25.32 62 -26 62 C-26 63.98 -26 65.96 -26 68 C-26.62648437 68.32613281 -27.25296875 68.65226562 -27.8984375 68.98828125 C-28.71570313 69.42527344 -29.53296875 69.86226563 -30.375 70.3125 C-31.59316406 70.95638672 -31.59316406 70.95638672 -32.8359375 71.61328125 C-35.26834043 72.96778724 -35.26834043 72.96778724 -37 76 C-37.99 75.67 -38.98 75.34 -40 75 C-40 74.01 -40 73.02 -40 72 C-38.948125 71.566875 -37.89625 71.13375 -36.8125 70.6875 C-33.70539018 69.36129459 -30.85481805 67.8167024 -28 66 C-28.33 65.67 -28.66 65.34 -29 65 C-31.16789043 66.22705034 -33.33459117 67.4560815 -35.5 68.6875 C-36.1384082 69.05037109 -36.77681641 69.41324219 -37.43457031 69.78710938 C-40.92638313 71.78192481 -44.36584395 73.82536639 -47.75 76 C-51 78 -51 78 -53 78 C-52.82597656 78.87011719 -52.82597656 78.87011719 -52.6484375 79.7578125 C-52.33643806 82.45883624 -52.27377006 84.36580502 -53 87 C-55.43208798 89.06792507 -57.85654134 90.39753307 -60.71484375 91.80859375 C-63.13837614 92.78812189 -63.13837614 92.78812189 -64 95 C-65.32 94.67 -66.64 94.34 -68 94 C-67.67 93.01 -67.34 92.02 -67 91 C-63.91827095 89.54635422 -60.90036219 88.26063116 -57.625 87.3125 C-57.08875 86.879375 -56.5525 86.44625 -56 86 C-55.938125 84.7625 -55.87625 83.525 -55.8125 82.25 C-55.57332016 79.63309119 -55.38796534 78.40148692 -53.54296875 76.4921875 C-51.0945971 74.85369787 -48.57543785 73.43260765 -46 72 C-44.56118314 71.13978209 -43.12520592 70.27480472 -41.69140625 69.40625 C-38.6664898 67.58553228 -35.64164522 65.76524881 -32.59765625 63.9765625 C-31.95320557 63.59580566 -31.30875488 63.21504883 -30.64477539 62.82275391 C-29 62 -29 62 -27 62 C-26.98066406 61.27006836 -26.96132812 60.54013672 -26.94140625 59.78808594 C-25.55613409 55.6854386 -22.53614495 54.40236604 -18.9375 52.390625 C-18.23101318 51.97834656 -17.52452637 51.56606812 -16.79663086 51.14129639 C-14.53971128 49.82858173 -12.27052977 48.53900368 -10 47.25 C-7.7326601 45.94169786 -5.46796133 44.62890775 -3.20336914 43.31585693 C-1.79333514 42.50065339 -0.38110721 41.68923108 1.03344727 40.88189697 C4.20375883 39.19972814 4.20375883 39.19972814 7 37 C7.23075082 35.65252916 7.41153063 34.29622435 7.5625 32.9375 C7.706875 31.638125 7.85125 30.33875 8 29 C7.34 29 6.68 29 6 29 C5.505 28.01 5.505 28.01 5 27 C2.8308139 28.1343727 0.69638761 29.30234161 -1.4375 30.5 C-2.04916016 30.81453125 -2.66082031 31.1290625 -3.29101562 31.453125 C-5.36184793 32.56934822 -5.36184793 32.56934822 -8 35 C-8.09555176 36.2792334 -8.19110352 37.5584668 -8.28955078 38.87646484 C-8.63348361 42.5007365 -8.81254685 42.82939144 -11.70874023 45.46533203 C-12.89228548 46.17429509 -14.09381165 46.85381524 -15.30859375 47.5078125 C-15.94934341 47.88179169 -16.59009308 48.25577087 -17.2502594 48.64108276 C-19.29872081 49.82891746 -21.3664592 50.97707789 -23.4375 52.125 C-24.79509004 52.90238596 -26.15122817 53.68231328 -27.50585938 54.46484375 C-30.12665397 55.97573779 -32.75773579 57.46572344 -35.39794922 58.94238281 C-39.33185015 61.15783036 -43.11963257 63.58608951 -46.87133789 66.09716797 C-49.63447644 67.26910126 -51.16674088 66.84505366 -54 66 C-54.928125 65.5978125 -54.928125 65.5978125 -55.875 65.1875 C-59.47717862 64.86966071 -61.97712985 67.15269046 -65 69 C-65.66 69 -66.32 69 -67 69 C-67 69.99 -67 70.98 -67 72 C-68.32 71.67 -69.64 71.34 -71 71 C-70.875 69.125 -70.875 69.125 -70 67 C-67.3125 65.9375 -67.3125 65.9375 -64 65 C-63.071875 64.4225 -62.14375 63.845 -61.1875 63.25 C-57.63795129 61.85802011 -57.20076254 62.06096976 -53.78222656 63.1628418 C-49.33319531 64.23828889 -47.11350288 63.71554041 -43.22967529 61.4066925 C-42.5918512 60.99017929 -41.9540271 60.57366608 -41.296875 60.14453125 C-40.61119446 59.72709152 -39.92551392 59.30965179 -39.21905518 58.87956238 C-37.04611422 57.54875452 -34.89871915 56.18199474 -32.75 54.8125 C-31.29320829 53.91091572 -29.83488497 53.01180127 -28.375 52.11523438 C-25.69430091 50.46404058 -23.02312331 48.79949059 -20.36230469 47.11645508 C-17 45 -17 45 -14.05175781 43.5300293 C-13.37467773 43.02511963 -12.69759766 42.52020996 -12 42 C-11.58219121 39.37305578 -11.58219121 39.37305578 -12 37 C-12.51908936 37.33845947 -13.03817871 37.67691895 -13.57299805 38.02563477 C-15.9348842 39.55341812 -18.31072104 41.05800075 -20.6875 42.5625 C-21.91243164 43.36204102 -21.91243164 43.36204102 -23.16210938 44.17773438 C-23.95810547 44.67724609 -24.75410156 45.17675781 -25.57421875 45.69140625 C-26.30213623 46.15748291 -27.03005371 46.62355957 -27.7800293 47.10375977 C-30.59626107 48.24072082 -32.12836682 47.85277351 -35 47 C-35.61875 46.731875 -36.2375 46.46375 -36.875 46.1875 C-40.47717862 45.86966071 -42.97712985 48.15269046 -46 50 C-46.66 50 -47.32 50 -48 50 C-48.33 50.99 -48.66 51.98 -49 53 C-50.485 52.505 -50.485 52.505 -52 52 C-51.67 50.68 -51.34 49.36 -51 48 C-50.29875 47.9175 -49.5975 47.835 -48.875 47.75 C-45.81121256 47.1315701 -45.81121256 47.1315701 -43 44.875 C-40 43 -40 43 -37.4375 43.1875 C-36.633125 43.455625 -35.82875 43.72375 -35 44 C-32.1845956 44.80473161 -30.58669128 45.20899415 -27.79589844 44.21484375 C-25.43124363 42.83343755 -23.08027394 41.43885169 -20.75 40 C-19.92242187 39.52949219 -19.09484375 39.05898437 -18.2421875 38.57421875 C-15.94607511 37.17773072 -13.9358691 35.86585371 -12 34 C-11.11994113 30.39712575 -11.11994113 30.39712575 -11 27 C-9.22265625 25.22265625 -9.22265625 25.22265625 -7.0625 24.0625 C-6.35222656 23.66160156 -5.64195313 23.26070312 -4.91015625 22.84765625 C-3 22 -3 22 -1 22 C-0.505 20.515 -0.505 20.515 0 19 C0.99 19 1.98 19 3 19 C3 20.32 3 21.64 3 23 C1.9275 23.45375 0.855 23.9075 -0.25 24.375 C-1.20519531 24.79072266 -1.20519531 24.79072266 -2.1796875 25.21484375 C-3.56780438 25.81358086 -4.96884813 26.38244005 -6.375 26.9375 C-8.20977253 27.88560673 -8.20977253 27.88560673 -8.6015625 30.06640625 C-8.73304687 30.70449219 -8.86453125 31.34257813 -9 32 C-6.34472704 30.59902171 -3.70173848 29.18061525 -1.0625 27.75 C-0.30775391 27.35425781 0.44699219 26.95851563 1.22460938 26.55078125 C1.94326172 26.15761719 2.66191406 25.76445313 3.40234375 25.359375 C4.06741943 25.00327148 4.73249512 24.64716797 5.41772461 24.28027344 C7.40210638 22.6746419 7.63191251 21.47830334 8 19 C6.824375 18.566875 6.824375 18.566875 5.625 18.125 C3 17 3 17 1 15 C0.69400937 12.43083343 0.48912913 9.95241616 0.375 7.375 C0.33632812 6.66859375 0.29765625 5.9621875 0.2578125 5.234375 C0.16352276 3.49001476 0.08067109 1.74504309 0 0 Z " fill="#8A2F6E" transform="translate(99,27)"/>
<path d="M0 0 C0 0.99 0 1.98 0 3 C0.56332031 2.8040625 1.12664062 2.608125 1.70703125 2.40625 C5.33599941 1.76329823 7.80809322 3.09057127 11.0703125 4.609375 C13 6 13 6 14.0625 9.75 C14.041875 10.8225 14.02125 11.895 14 13 C13.36191406 13.2475 12.72382813 13.495 12.06640625 13.75 C9.07699423 15.24237418 7.19470621 16.45130892 5 19 C4.33886912 22.59828613 4.10025278 25.80075123 4.16235352 29.4375 C4.19176935 31.29222302 4.1038144 33.14795104 4 35 C1.0278901 36.9814066 -0.49389321 37.7434556 -4 38 C-6.125 36.5625 -6.125 36.5625 -8 35 C-8.99 35 -9.98 35 -11 35 C-11 34.01 -11 33.02 -11 32 C-11.66 32 -12.32 32 -13 32 C-13 29.69 -13 27.38 -13 25 C-12.34 25 -11.68 25 -11 25 C-11 23.68 -11 22.36 -11 21 C-11.99 20.67 -12.98 20.34 -14 20 C-13.34 18.68 -12.68 17.36 -12 16 C-11.01 16.66 -10.02 17.32 -9 18 C-8.28024634 21.65920563 -8.21708075 25.2662111 -8 29 C-7.67 25.04 -7.34 21.08 -7 17 C-9.475 16.01 -9.475 16.01 -12 15 C-13 14 -13 14 -13.09765625 11.93359375 C-13.08605469 11.10988281 -13.07445313 10.28617188 -13.0625 9.4375 C-13.05347656 8.61121094 -13.04445313 7.78492188 -13.03515625 6.93359375 C-13.02355469 6.29550781 -13.01195313 5.65742187 -13 5 C-11.58957044 4.15615325 -10.17135868 3.32530504 -8.75 2.5 C-7.56664063 1.80390625 -7.56664063 1.80390625 -6.359375 1.09375 C-4 0 -4 0 0 0 Z " fill="#040103" transform="translate(121,31)"/>
<path d="M0 0 C0.99 0 1.98 0 3 0 C3 1.32 3 2.64 3 4 C1.9275 4.45375 0.855 4.9075 -0.25 5.375 C-1.20519531 5.79072266 -1.20519531 5.79072266 -2.1796875 6.21484375 C-3.56780438 6.81358086 -4.96884813 7.38244005 -6.375 7.9375 C-8.20977253 8.88560673 -8.20977253 8.88560673 -8.6015625 11.06640625 C-8.73304687 11.70449219 -8.86453125 12.34257813 -9 13 C-8.05898437 12.41089844 -7.11796875 11.82179688 -6.1484375 11.21484375 C-4.89115812 10.45484651 -3.63331543 9.69578063 -2.375 8.9375 C-1.44880859 8.35258789 -1.44880859 8.35258789 -0.50390625 7.75585938 C2.87229492 5.74790815 4.42267868 4.95764573 8.4609375 5.25390625 C9.29882812 5.50011719 10.13671875 5.74632812 11 6 C10.67 7.32 10.34 8.64 10 10 C10 9.01 10 8.02 10 7 C8.68 7.99 7.36 8.98 6 10 C5.505 9.01 5.505 9.01 5 8 C2.8308139 9.1343727 0.69638761 10.30234161 -1.4375 11.5 C-2.04916016 11.81453125 -2.66082031 12.1290625 -3.29101562 12.453125 C-5.36184793 13.56934822 -5.36184793 13.56934822 -8 16 C-8.14332764 17.9188501 -8.14332764 17.9188501 -8.28955078 19.87646484 C-8.63348361 23.5007365 -8.81254685 23.82939144 -11.70874023 26.46533203 C-12.89228548 27.17429509 -14.09381165 27.85381524 -15.30859375 28.5078125 C-15.94934341 28.88179169 -16.59009308 29.25577087 -17.2502594 29.64108276 C-19.29872081 30.82891746 -21.3664592 31.97707789 -23.4375 33.125 C-24.79509004 33.90238596 -26.15122817 34.68231328 -27.50585938 35.46484375 C-30.12665397 36.97573779 -32.75773579 38.46572344 -35.39794922 39.94238281 C-39.33185015 42.15783036 -43.11963257 44.58608951 -46.87133789 47.09716797 C-49.63447644 48.26910126 -51.16674088 47.84505366 -54 47 C-54.61875 46.731875 -55.2375 46.46375 -55.875 46.1875 C-59.47717862 45.86966071 -61.97712985 48.15269046 -65 50 C-65.66 50 -66.32 50 -67 50 C-67 50.99 -67 51.98 -67 53 C-68.32 52.67 -69.64 52.34 -71 52 C-70.875 50.125 -70.875 50.125 -70 48 C-67.3125 46.9375 -67.3125 46.9375 -64 46 C-63.071875 45.4225 -62.14375 44.845 -61.1875 44.25 C-57.63795129 42.85802011 -57.20076254 43.06096976 -53.78222656 44.1628418 C-49.33319531 45.23828889 -47.11350288 44.71554041 -43.22967529 42.4066925 C-42.5918512 41.99017929 -41.9540271 41.57366608 -41.296875 41.14453125 C-40.61119446 40.72709152 -39.92551392 40.30965179 -39.21905518 39.87956238 C-37.04611422 38.54875452 -34.89871915 37.18199474 -32.75 35.8125 C-31.29320829 34.91091572 -29.83488497 34.01180127 -28.375 33.11523438 C-25.69430091 31.46404058 -23.02312331 29.79949059 -20.36230469 28.11645508 C-17 26 -17 26 -14.05175781 24.5300293 C-13.0361377 23.77266479 -13.0361377 23.77266479 -12 23 C-11.58219121 20.37305578 -11.58219121 20.37305578 -12 18 C-12.51908936 18.33845947 -13.03817871 18.67691895 -13.57299805 19.02563477 C-15.9348842 20.55341812 -18.31072104 22.05800075 -20.6875 23.5625 C-21.91243164 24.36204102 -21.91243164 24.36204102 -23.16210938 25.17773438 C-23.95810547 25.67724609 -24.75410156 26.17675781 -25.57421875 26.69140625 C-26.30213623 27.15748291 -27.03005371 27.62355957 -27.7800293 28.10375977 C-30.59626107 29.24072082 -32.12836682 28.85277351 -35 28 C-35.61875 27.731875 -36.2375 27.46375 -36.875 27.1875 C-40.47717862 26.86966071 -42.97712985 29.15269046 -46 31 C-46.66 31 -47.32 31 -48 31 C-48.33 31.99 -48.66 32.98 -49 34 C-50.485 33.505 -50.485 33.505 -52 33 C-51.67 31.68 -51.34 30.36 -51 29 C-49.948125 28.87625 -49.948125 28.87625 -48.875 28.75 C-45.81121256 28.1315701 -45.81121256 28.1315701 -43 25.875 C-40 24 -40 24 -37.4375 24.1875 C-36.633125 24.455625 -35.82875 24.72375 -35 25 C-32.1845956 25.80473161 -30.58669128 26.20899415 -27.79589844 25.21484375 C-25.43124363 23.83343755 -23.08027394 22.43885169 -20.75 21 C-19.92242187 20.52949219 -19.09484375 20.05898437 -18.2421875 19.57421875 C-15.94607511 18.17773072 -13.9358691 16.86585371 -12 15 C-11.11994113 11.39712575 -11.11994113 11.39712575 -11 8 C-9.22265625 6.22265625 -9.22265625 6.22265625 -7.0625 5.0625 C-6.35222656 4.66160156 -5.64195313 4.26070312 -4.91015625 3.84765625 C-3 3 -3 3 -1 3 C-0.67 2.01 -0.34 1.02 0 0 Z " fill="#882E6C" transform="translate(99,46)"/>
<path d="M0 0 C1.32 0.33 2.64 0.66 4 1 C2.99519595 3.74037467 2.43828635 4.79303145 -0.25 6.0625 C-1.1575 6.371875 -2.065 6.68125 -3 7 C-3.969375 7.5775 -4.93875 8.155 -5.9375 8.75 C-9 10 -9 10 -12.0625 9.375 C-15 8 -15 8 -17.5625 6.3125 C-19.88739943 4.8001326 -19.88739943 4.8001326 -22.375 5.0625 C-25.86242401 6.30800857 -28.8027463 8.12990821 -32 10 C-32.66 10 -33.32 10 -34 10 C-34 11.98 -34 13.96 -34 16 C-34.62648437 16.32613281 -35.25296875 16.65226562 -35.8984375 16.98828125 C-36.71570313 17.42527344 -37.53296875 17.86226562 -38.375 18.3125 C-39.18710938 18.74175781 -39.99921875 19.17101562 -40.8359375 19.61328125 C-43.26834043 20.96778724 -43.26834043 20.96778724 -45 24 C-45.99 23.67 -46.98 23.34 -48 23 C-48 22.01 -48 21.02 -48 20 C-46.948125 19.566875 -45.89625 19.13375 -44.8125 18.6875 C-41.70539018 17.36129459 -38.85481805 15.8167024 -36 14 C-36.495 13.505 -36.495 13.505 -37 13 C-39.16789043 14.22705034 -41.33459117 15.4560815 -43.5 16.6875 C-44.1384082 17.05037109 -44.77681641 17.41324219 -45.43457031 17.78710938 C-48.92638313 19.78192481 -52.36584395 21.82536639 -55.75 24 C-59 26 -59 26 -61 26 C-60.88398437 26.58007812 -60.76796875 27.16015625 -60.6484375 27.7578125 C-60.33643806 30.45883624 -60.27377006 32.36580502 -61 35 C-63.43208798 37.06792507 -65.85654134 38.39753307 -68.71484375 39.80859375 C-71.13837614 40.78812189 -71.13837614 40.78812189 -72 43 C-73.32 42.67 -74.64 42.34 -76 42 C-75.67 41.01 -75.34 40.02 -75 39 C-71.91827095 37.54635422 -68.90036219 36.26063116 -65.625 35.3125 C-65.08875 34.879375 -64.5525 34.44625 -64 34 C-63.938125 32.7625 -63.87625 31.525 -63.8125 30.25 C-63.57332016 27.63309119 -63.38796534 26.40148692 -61.54296875 24.4921875 C-59.0945971 22.85369787 -56.57543785 21.43260765 -54 20 C-52.56118314 19.13978209 -51.12520592 18.27480472 -49.69140625 17.40625 C-46.6664898 15.58553228 -43.64164522 13.76524881 -40.59765625 11.9765625 C-39.95320557 11.59580566 -39.30875488 11.21504883 -38.64477539 10.82275391 C-37 10 -37 10 -35 10 C-34.9071875 8.8553125 -34.9071875 8.8553125 -34.8125 7.6875 C-34 5 -34 5 -31.9375 3.1875 C-28.14673702 1.6550639 -24.98287738 1.21999109 -21 2 C-18.32654682 3.19400841 -15.82090992 4.52083477 -13.296875 6.00390625 C-11.08606891 7.1909758 -11.08606891 7.1909758 -8.8671875 6.75 C-6.41093867 5.76338959 -4.26113801 4.36858353 -2 3 C-1.34 3 -0.68 3 0 3 C0 2.01 0 1.02 0 0 Z " fill="#862E6B" transform="translate(107,79)"/>
<path d="M0 0 C2.64 1.32 5.28 2.64 8 4 C8.14826923 10.7625974 8.25718224 17.52425003 8.32958984 24.28808594 C8.35977154 26.58903481 8.40072227 28.88986855 8.45263672 31.19042969 C8.52538771 34.49703346 8.55944298 37.80211728 8.5859375 41.109375 C8.61690521 42.13867126 8.64787292 43.16796753 8.67977905 44.22845459 C8.68106364 46.9516108 8.64073845 49.35261036 8 52 C5 54.45117188 5 54.45117188 2 56 C1.53788135 58.89594351 1.415253 60.90497024 1.625 63.75 C1.65207031 64.44738281 1.67914063 65.14476562 1.70703125 65.86328125 C1.77745217 67.57685705 1.88507087 69.28883302 2 71 C0.68 71 -0.64 71 -2 71 C-1.99398167 68.41211799 -1.94659047 65.83620571 -1.875 63.25 C-1.87757812 62.52039063 -1.88015625 61.79078125 -1.8828125 61.0390625 C-1.8046875 58.890625 -1.8046875 58.890625 -1 55 C-0.01 54.47535156 0.98 53.95070312 2 53.41015625 C5.11981658 51.38937374 5.11981658 51.38937374 5.57199097 48.87200928 C5.79187842 46.08316186 5.83050075 43.34436853 5.8046875 40.546875 C5.82524704 39.02383759 5.82524704 39.02383759 5.84622192 37.47003174 C5.88358858 34.22957318 5.87980238 30.99064382 5.875 27.75 C5.89312201 25.55205931 5.91392312 23.35413895 5.9375 21.15625 C5.98941295 15.77068318 6.0075517 10.38579397 6 5 C3.525 4.01 3.525 4.01 1 3 C1.02618408 3.7113208 1.05236816 4.4226416 1.0793457 5.15551758 C1.18319396 8.37428759 1.24828758 11.5927058 1.3125 14.8125 C1.3753418 16.49182617 1.3753418 16.49182617 1.43945312 18.20507812 C1.45556641 19.27822266 1.47167969 20.35136719 1.48828125 21.45703125 C1.51446533 22.44678955 1.54064941 23.43654785 1.56762695 24.45629883 C1 27 1 27 -1.40551758 28.84643555 C-4 30 -4 30 -6 30 C-6 33.96 -6 37.92 -6 42 C-5.34 42 -4.68 42 -4 42 C-4.66 43.32 -5.32 44.64 -6 46 C-6.99 45.67 -7.98 45.34 -9 45 C-9 44.01 -9 43.02 -9 42 C-8.34 42 -7.68 42 -7 42 C-7.04640625 41.09636719 -7.0928125 40.19273438 -7.140625 39.26171875 C-7.17671875 38.08222656 -7.2128125 36.90273437 -7.25 35.6875 C-7.29640625 34.51574219 -7.3428125 33.34398437 -7.390625 32.13671875 C-7 29 -7 29 -5.109375 27.08203125 C-3 26 -3 26 -1 26 C-1.00523682 25.2479126 -1.01047363 24.4958252 -1.01586914 23.72094727 C-1.03657227 20.33480658 -1.04963877 16.94867916 -1.0625 13.5625 C-1.07087891 12.37849609 -1.07925781 11.19449219 -1.08789062 9.97460938 C-1.09111328 8.84990234 -1.09433594 7.72519531 -1.09765625 6.56640625 C-1.10289307 5.52427979 -1.10812988 4.48215332 -1.11352539 3.40844727 C-1 1 -1 1 0 0 Z " fill="#953377" transform="translate(113,70)"/>
<path d="M0 0 C0.845625 0.4125 1.69125 0.825 2.5625 1.25 C2.5625 2.57 2.5625 3.89 2.5625 5.25 C1.2425 4.92 -0.0775 4.59 -1.4375 4.25 C-1.4375 3.59 -1.4375 2.93 -1.4375 2.25 C-2.4275 2.58 -3.4175 2.91 -4.4375 3.25 C-4.4375 3.91 -4.4375 4.57 -4.4375 5.25 C-2.1275 5.91 0.1825 6.57 2.5625 7.25 C2.8984375 9.51171875 2.8984375 9.51171875 2.5625 12.25 C0.2265625 14.26953125 0.2265625 14.26953125 -2.8125 16.0625 C-3.81023437 16.66707031 -4.80796875 17.27164063 -5.8359375 17.89453125 C-8.4375 19.25 -8.4375 19.25 -10.4375 19.25 C-10.4375 13.97 -10.4375 8.69 -10.4375 3.25 C-4.28365385 -0.93461538 -4.28365385 -0.93461538 0 0 Z " fill="#050104" transform="translate(137.4375,64.75)"/>
<path d="M0 0 C0.66 0 1.32 0 2 0 C1.67 3.3 1.34 6.6 1 10 C2.32 9.67 3.64 9.34 5 9 C4.34 10.32 3.68 11.64 3 13 C3.99 13 4.98 13 6 13 C6.33 12.01 6.66 11.02 7 10 C7.495 11.98 7.495 11.98 8 14 C9.98 14.33 11.96 14.66 14 15 C14 14.34 14 13.68 14 13 C15.32 13.33 16.64 13.66 18 14 C18 14.66 18 15.32 18 16 C14.20313511 18.58186812 11.36433828 17.71416445 7 17 C6.01 17.33 5.02 17.66 4 18 C3.1028125 17.2265625 3.1028125 17.2265625 2.1875 16.4375 C1.465625 15.963125 0.74375 15.48875 0 15 C-6.05773911 16.28382226 -11.16899833 19.92416303 -16.375 23.125 C-17.30183594 23.68832031 -18.22867188 24.25164062 -19.18359375 24.83203125 C-21.45903155 26.21606043 -23.7309763 27.60548922 -26 29 C-26 28.01 -26 27.02 -26 26 C-23.70507812 24.44116211 -23.70507812 24.44116211 -20.53125 22.77734375 C-19.40332031 22.15537109 -18.27539062 21.53339844 -17.11328125 20.89257812 C-15.31092945 19.90998987 -13.50514828 18.94015845 -11.68115234 17.99829102 C-7.80567246 15.98145965 -4.20576303 13.98566787 -1 11 C-0.00961519 7.42800347 -0.38609145 4.60320471 -1 1 C-0.67 0.67 -0.34 0.34 0 0 Z " fill="#923274" transform="translate(107,53)"/>
<path d="M0 0 C5.35757505 1.23148052 10.46987123 2.81588393 15 6 C17.57821001 11.05531375 17.42583693 16.58181966 16 22 C16.69867188 22.20496094 17.39734375 22.40992187 18.1171875 22.62109375 C19.02726562 22.89050781 19.93734375 23.15992187 20.875 23.4375 C21.77992188 23.70433594 22.68484375 23.97117187 23.6171875 24.24609375 C26 25 26 25 28 26 C28 26.99 28 27.98 28 29 C20.80613443 26.96150996 13.84290835 24.51843632 6.875 21.8125 C5.91851562 21.44447266 4.96203125 21.07644531 3.9765625 20.69726562 C1.64975711 19.80144555 -0.67571021 18.90232227 -3 18 C-3 17.67 -3 17.34 -3 17 C1.79077635 16.71226568 5.00617556 17.55830025 9.375 19.5 C10.96441406 20.19609375 10.96441406 20.19609375 12.5859375 20.90625 C13.38257813 21.2671875 14.17921875 21.628125 15 22 C14.855625 21.33613281 14.71125 20.67226563 14.5625 19.98828125 C14.376875 19.10527344 14.19125 18.22226562 14 17.3125 C13.814375 16.44238281 13.62875 15.57226562 13.4375 14.67578125 C13 12 13 12 13 7 C8.71 6.01 4.42 5.02 0 4 C0 2.68 0 1.36 0 0 Z " fill="#73275C" transform="translate(154,40)"/>
<path d="M0 0 C1.32 0.33 2.64 0.66 4 1 C2.99519595 3.74037467 2.43828635 4.79303145 -0.25 6.0625 C-1.1575 6.371875 -2.065 6.68125 -3 7 C-3.969375 7.5775 -4.93875 8.155 -5.9375 8.75 C-9 10 -9 10 -12.0625 9.375 C-15 8 -15 8 -17.5625 6.3125 C-19.89736621 4.78351333 -19.89736621 4.78351333 -22.4375 5.125 C-25.14741751 5.98634426 -25.14741751 5.98634426 -28.125 7.5625 C-31 9 -31 9 -34 9 C-34 7.68 -34 6.36 -34 5 C-30.73895609 2.14658658 -27.56506465 1.43588526 -23.25390625 1.55859375 C-19.56265362 2.28149071 -16.51612805 4.11233877 -13.296875 6.00390625 C-11.08606891 7.1909758 -11.08606891 7.1909758 -8.8671875 6.75 C-6.41093867 5.76338959 -4.26113801 4.36858353 -2 3 C-1.34 3 -0.68 3 0 3 C0 2.01 0 1.02 0 0 Z " fill="#8A2F6E" transform="translate(107,79)"/>
<path d="M0 0 C1.95703125 0.65625 1.95703125 0.65625 4 2 C4.57421875 4.53125 4.57421875 4.53125 4.6875 7.5 C4.76839782 11.39771356 4.76839782 11.39771356 6 15 C7.99571323 15.67939174 9.99594773 16.34561559 12 17 C12.66 17.66 13.32 18.32 14 19 C13.67 19.99 13.34 20.98 13 22 C7.25 21.25 7.25 21.25 5 19 C4.01 19 3.02 19 2 19 C2 18.01 2 17.02 2 16 C1.34 16 0.68 16 0 16 C0 13.69 0 11.38 0 9 C0.66 9 1.32 9 2 9 C2 7.68 2 6.36 2 5 C1.01 4.67 0.02 4.34 -1 4 C-0.67 2.68 -0.34 1.36 0 0 Z " fill="#75285D" transform="translate(108,47)"/>
<path d="M0 0 C0.33 0 0.66 0 1 0 C1.15207646 6.76240234 1.25718346 13.52436432 1.32958984 20.28808594 C1.35977154 22.58903481 1.40072227 24.88986855 1.45263672 27.19042969 C1.52538771 30.49703346 1.55944298 33.80211728 1.5859375 37.109375 C1.61690521 38.13867126 1.64787292 39.16796753 1.67977905 40.22845459 C1.68106364 42.9516108 1.64073845 45.35261036 1 48 C-2 50.45117188 -2 50.45117188 -5 52 C-5.46211865 54.89594351 -5.584747 56.90497024 -5.375 59.75 C-5.34792969 60.44738281 -5.32085937 61.14476562 -5.29296875 61.86328125 C-5.22254783 63.57685705 -5.11492913 65.28883302 -5 67 C-6.32 67 -7.64 67 -9 67 C-8.99398167 64.41211799 -8.94659047 61.83620571 -8.875 59.25 C-8.87757812 58.52039063 -8.88015625 57.79078125 -8.8828125 57.0390625 C-8.8046875 54.890625 -8.8046875 54.890625 -8 51 C-3.34161491 47 -3.34161491 47 0 47 C0 31.49 0 15.98 0 0 Z " fill="#71265A" transform="translate(120,74)"/>
<path d="M0 0 C0.33 0 0.66 0 1 0 C0.99887207 0.91813477 0.99774414 1.83626953 0.99658203 2.78222656 C1.00652254 6.19743856 1.04310625 9.6102238 1.09765625 13.02490234 C1.11579627 14.50104685 1.1233883 15.97736094 1.12011719 17.45361328 C1.11725366 19.57977942 1.15261821 21.70244477 1.1953125 23.828125 C1.20578613 25.1059082 1.21625977 26.38369141 1.22705078 27.70019531 C1.68639087 31.26964775 1.68639087 31.26964775 5 33.20507812 C6.485 34.09356445 6.485 34.09356445 8 35 C8.62203223 38.00749566 8.88560211 40.24960366 8.875 43.25 C8.895625 43.99507812 8.91625 44.74015625 8.9375 45.5078125 C8.98442939 47.33805864 8.99574223 49.16915725 9 51 C7.68 51 6.36 51 5 51 C5.05800781 49.95199219 5.11601562 48.90398437 5.17578125 47.82421875 C5.22268131 46.445357 5.26818122 45.06644713 5.3125 43.6875 C5.35439453 42.99720703 5.39628906 42.30691406 5.43945312 41.59570312 C5.54841587 39.30706875 5.54841587 39.30706875 5 36 C3.7625 35.37931641 3.7625 35.37931641 2.5 34.74609375 C1.2625 33.88177734 1.2625 33.88177734 0 33 C-0.45760061 30.28332853 -0.58717896 28.19522255 -0.48828125 25.48828125 C-0.47766914 24.39594429 -0.47766914 24.39594429 -0.46684265 23.28153992 C-0.43887081 20.95747763 -0.3761365 18.6358327 -0.3125 16.3125 C-0.28742031 14.73636295 -0.26460655 13.16018809 -0.24414062 11.58398438 C-0.18903626 7.72172602 -0.10275228 3.86127268 0 0 Z " fill="#9C357C" transform="translate(128,100)"/>
<path d="M0 0 C0 0.66 0 1.32 0 2 C-2.44921875 3.76171875 -2.44921875 3.76171875 -5.6875 5.6875 C-6.74324219 6.33074219 -7.79898438 6.97398438 -8.88671875 7.63671875 C-12.28842566 9.12629932 -13.55167063 9.17570456 -17 8 C-17.61875 7.731875 -18.2375 7.46375 -18.875 7.1875 C-22.47717862 6.86966071 -24.97712985 9.15269046 -28 11 C-28.66 11 -29.32 11 -30 11 C-30.33 11.99 -30.66 12.98 -31 14 C-31.99 13.67 -32.98 13.34 -34 13 C-33.67 11.68 -33.34 10.36 -33 9 C-31.948125 8.87625 -31.948125 8.87625 -30.875 8.75 C-27.81121256 8.1315701 -27.81121256 8.1315701 -25 5.875 C-22 4 -22 4 -19.4375 4.1875 C-18.633125 4.455625 -17.82875 4.72375 -17 5 C-13.78684502 6.01354553 -12.50011827 6.23318858 -9.39453125 4.78515625 C-8.11642578 3.93244141 -8.11642578 3.93244141 -6.8125 3.0625 C-2.1594533 0 -2.1594533 0 0 0 Z " fill="#8B306F" transform="translate(81,66)"/>
<path d="M0 0 C0.33 0 0.66 0 1 0 C1.33 3.96 1.66 7.92 2 12 C3.65 11.34 5.3 10.68 7 10 C7.66 10.33 8.32 10.66 9 11 C9 10.01 9 9.02 9 8 C10.32 8.33 11.64 8.66 13 9 C13 9.66 13 10.32 13 11 C13.99 11.33 14.98 11.66 16 12 C14.25 13.5625 14.25 13.5625 12 15 C11.38125 14.835 10.7625 14.67 10.125 14.5 C6.82234648 13.72290505 4.84123314 15.38566299 2 17 C0 15 0 15 -0.1953125 11.5234375 C-0.18201493 10.14049032 -0.15816232 8.75761346 -0.125 7.375 C-0.11597656 6.66859375 -0.10695313 5.9621875 -0.09765625 5.234375 C-0.07407603 3.48943902 -0.03820461 1.74467705 0 0 Z " fill="#8D3070" transform="translate(126,51)"/>
<path d="M0 0 C0.66 0 1.32 0 2 0 C1.67 2.64 1.34 5.28 1 8 C2.32 8.33 3.64 8.66 5 9 C4.67 9.66 4.34 10.32 4 11 C3.01 10.67 2.02 10.34 1 10 C1.1134375 10.74636719 1.226875 11.49273437 1.34375 12.26171875 C1 15 1 15 -1.40625 17.01953125 C-2.4271875 17.61121094 -3.448125 18.20289062 -4.5 18.8125 C-5.5209375 19.41707031 -6.541875 20.02164063 -7.59375 20.64453125 C-8.3878125 21.09183594 -9.181875 21.53914063 -10 22 C-10 21.01 -10 20.02 -10 19 C-8.3203125 17.61328125 -8.3203125 17.61328125 -6.125 16.3125 C-5.40570313 15.87550781 -4.68640625 15.43851563 -3.9453125 14.98828125 C-2 14 -2 14 0 14 C0 12.35 0 10.7 0 9 C-2.31 8.67 -4.62 8.34 -7 8 C-7 6.68 -7 5.36 -7 4 C-6.01 4 -5.02 4 -4 4 C-4 4.66 -4 5.32 -4 6 C-2.68 6.33 -1.36 6.66 0 7 C-0.185625 6.030625 -0.37125 5.06125 -0.5625 4.0625 C-0.706875 3.051875 -0.85125 2.04125 -1 1 C-0.67 0.67 -0.34 0.34 0 0 Z " fill="#943276" transform="translate(140,63)"/>
<path d="M0 0 C0.68964844 0.30035156 1.37929687 0.60070313 2.08984375 0.91015625 C7.89015062 3.25733118 11.90868983 4.32121402 18.078125 3.23828125 C20.83344128 2.89666683 22.55053443 3.77526721 25 5 C27.32748694 5.68679942 29.65986656 6.35761043 32 7 C32 7.99 32 8.98 32 10 C30.68 10 29.36 10 28 10 C28 9.34 28 8.68 28 8 C27.34 7.87625 26.68 7.7525 26 7.625 C22.30301417 6.85479462 18.65994058 5.93049337 15 5 C15 5.66 15 6.32 15 7 C14.01 7.33 13.02 7.66 12 8 C12 7.34 12 6.68 12 6 C11.30132812 5.79503906 10.60265625 5.59007813 9.8828125 5.37890625 C8.97273437 5.10949219 8.06265625 4.84007813 7.125 4.5625 C6.22007812 4.29566406 5.31515625 4.02882813 4.3828125 3.75390625 C2 3 2 3 0 2 C0 1.34 0 0.68 0 0 Z " fill="#8C3070" transform="translate(170,60)"/>
<path d="M0 0 C3.40869062 0.73679536 6.48771308 1.93261859 9.6875 3.3125 C10.66074219 3.72113281 11.63398438 4.12976562 12.63671875 4.55078125 C15 6 15 6 15.828125 7.87109375 C16.0143867 10.17819889 16.09654293 12.43508089 16.0625 14.75 C16.05347656 15.54921875 16.04445312 16.3484375 16.03515625 17.171875 C16.02355469 17.77515625 16.01195312 18.3784375 16 19 C13.7655402 14.96707255 13.45503257 11.55032566 13 7 C8.71 6.01 4.42 5.02 0 4 C0 2.68 0 1.36 0 0 Z " fill="#852D6A" transform="translate(154,40)"/>
<path d="M0 0 C1.31872662 0.39651917 2.62997101 0.81798691 3.9375 1.25 C4.66839844 1.48203125 5.39929688 1.7140625 6.15234375 1.953125 C8 3 8 3 8.75390625 5.109375 C8.83511719 5.73328125 8.91632813 6.3571875 9 7 C6.525 8.485 6.525 8.485 4 10 C3.67 9.01 3.34 8.02 3 7 C0.98491642 6.26676204 0.98491642 6.26676204 -1 6 C-1.042721 4.33388095 -1.04063832 2.66617115 -1 1 C-0.67 0.67 -0.34 0.34 0 0 Z " fill="#7E2B65" transform="translate(142,65)"/>
<path d="M0 0 C0.33 0.99 0.66 1.98 1 3 C-0.62170379 4.00533667 -2.24747237 5.00411907 -3.875 6 C-5.23238281 6.8353125 -5.23238281 6.8353125 -6.6171875 7.6875 C-9 9 -9 9 -11 9 C-10.9375 6.75 -10.9375 6.75 -10 4 C-6.9301813 1.52994022 -4.00503984 0 0 0 Z " fill="#0A0308" transform="translate(101,50)"/>
<path d="M0 0 C2 1 2 1 4 3 C3.01 3.33 2.02 3.66 1 4 C1 5.98 1 7.96 1 10 C0.37351562 10.32613281 -0.25296875 10.65226562 -0.8984375 10.98828125 C-1.71570313 11.42527344 -2.53296875 11.86226562 -3.375 12.3125 C-4.18710938 12.74175781 -4.99921875 13.17101562 -5.8359375 13.61328125 C-8.26834043 14.96778724 -8.26834043 14.96778724 -10 18 C-10.99 17.67 -11.98 17.34 -13 17 C-13 16.01 -13 15.02 -13 14 C-11.948125 13.566875 -10.89625 13.13375 -9.8125 12.6875 C-6.7036321 11.34431772 -3.77824382 9.96111328 -1 8 C-0.67 7.01 -0.34 6.02 0 5 C-0.66 4.67 -1.32 4.34 -2 4 C-1.34 4 -0.68 4 0 4 C0 2.68 0 1.36 0 0 Z " fill="#933275" transform="translate(72,85)"/>
<path d="M0 0 C1.32 0.66 2.64 1.32 4 2 C4 5.96 4 9.92 4 14 C2.02 14.99 2.02 14.99 0 16 C0 13.69 0 11.38 0 9 C0.66 9 1.32 9 2 9 C2 7.68 2 6.36 2 5 C1.01 4.67 0.02 4.34 -1 4 C-0.67 2.68 -0.34 1.36 0 0 Z " fill="#0E040B" transform="translate(108,47)"/>
<path d="M0 0 C0.99 0 1.98 0 3 0 C3 1.32 3 2.64 3 4 C1.9275 4.45375 0.855 4.9075 -0.25 5.375 C-2.88062317 6.50088537 -5.46000396 7.67920206 -8 9 C-8 10.65 -8 12.3 -8 14 C-8.99 14.495 -8.99 14.495 -10 15 C-10.33 12.69 -10.66 10.38 -11 8 C-9.71186658 7.16121545 -8.41936744 6.32913217 -7.125 5.5 C-6.40570313 5.0359375 -5.68640625 4.571875 -4.9453125 4.09375 C-3 3 -3 3 -1 3 C-0.67 2.01 -0.34 1.02 0 0 Z " fill="#892F6D" transform="translate(99,46)"/>
<path d="M0 0 C0.33 0 0.66 0 1 0 C1.00902344 0.92039063 1.01804688 1.84078125 1.02734375 2.7890625 C1.69977305 6.34431056 1.69977305 6.34431056 5.37890625 7.8984375 C6.7644023 8.41551258 8.1596777 8.90696631 9.5625 9.375 C10.27341797 9.63410156 10.98433594 9.89320312 11.71679688 10.16015625 C13.4700083 10.79554831 15.2341102 11.40074498 17 12 C17 12.33 17 12.66 17 13 C10.38914524 12.51030705 5.05022986 10.66557258 -1 8 C-0.67 5.36 -0.34 2.72 0 0 Z " fill="#812C67" transform="translate(137,44)"/>
<path d="M0 0 C-0.125 1.8125 -0.125 1.8125 -1 4 C-4.20883825 5.95320589 -6.2205439 7 -10 7 C-10 5.68 -10 4.36 -10 3 C-6.66954606 0.33563684 -4.2225435 -0.3619323 0 0 Z " fill="#6E2558" transform="translate(83,81)"/>
<path d="M0 0 C0.33 0.99 0.66 1.98 1 3 C-0.38552202 4.01423834 -1.78394288 5.01087002 -3.1875 6 C-3.96480469 6.556875 -4.74210937 7.11375 -5.54296875 7.6875 C-8.28336637 9.151369 -9.94100837 9.26080213 -13 9 C-10.57542028 6.31765765 -7.92489603 4.63143275 -4.8125 2.8125 C-3.91144531 2.28269531 -3.01039062 1.75289063 -2.08203125 1.20703125 C-1.39496094 0.80871094 -0.70789063 0.41039063 0 0 Z " fill="#1C0916" transform="translate(71,90)"/>
<path d="M0 0 C4.3177458 0.50797009 8.03302114 1.19682779 12 3 C12 3.66 12 4.32 12 5 C12.99 5.33 13.98 5.66 15 6 C13 7 13 7 10.21484375 6.07421875 C9.13332031 5.61660156 8.05179688 5.15898438 6.9375 4.6875 C5.85339844 4.23761719 4.76929688 3.78773437 3.65234375 3.32421875 C1 2 1 2 0 0 Z " fill="#210B1B" transform="translate(186,65)"/>
<path d="M0 0 C0.33 0 0.66 0 1 0 C1.33 3.96 1.66 7.92 2 12 C3.65 11.34 5.3 10.68 7 10 C5.68 12.31 4.36 14.62 3 17 C2.01 16.34 1.02 15.68 0 15 C-0.22137393 12.37302936 -0.28162025 9.99106036 -0.1875 7.375 C-0.17396484 6.66859375 -0.16042969 5.9621875 -0.14648438 5.234375 C-0.1111104 3.48925872 -0.05730221 1.74453392 0 0 Z " fill="#692454" transform="translate(126,51)"/>
<path d="M0 0 C0.66 0.33 1.32 0.66 2 1 C1.67 4.96 1.34 8.92 1 13 C1.66 13 2.32 13 3 13 C2.34 14.32 1.68 15.64 1 17 C0.01 16.67 -0.98 16.34 -2 16 C-2 15.01 -2 14.02 -2 13 C-1.34 13 -0.68 13 0 13 C0 8.71 0 4.42 0 0 Z " fill="#943376" transform="translate(106,99)"/>
<path d="M0 0 C-0.33 0.99 -0.66 1.98 -1 3 C-3.0625 3.6875 -3.0625 3.6875 -5 4 C-5 4.99 -5 5.98 -5 7 C-6.32 6.67 -7.64 6.34 -9 6 C-8.875 4.125 -8.875 4.125 -8 2 C-5.25822503 0.83328724 -2.99432393 0 0 0 Z " fill="#842D69" transform="translate(37,92)"/>
<path d="M0 0 C3.375 0.6875 3.375 0.6875 7 2 C8.72091781 4.72478653 9.14031516 6.13472319 8.625 9.3125 C8.41875 9.869375 8.2125 10.42625 8 11 C7.67 11 7.34 11 7 11 C6.67 8.69 6.34 6.38 6 4 C3.69 3.34 1.38 2.68 -1 2 C-0.67 1.34 -0.34 0.68 0 0 Z " fill="#852D6A" transform="translate(128,33)"/>
<path d="M0 0 C0.33 0 0.66 0 1 0 C1.33 5.28 1.66 10.56 2 16 C0.68 16 -0.64 16 -2 16 C-2 14.68 -2 13.36 -2 12 C-1.34 12 -0.68 12 0 12 C0 8.04 0 4.08 0 0 Z " fill="#8A2F6E" transform="translate(135,135)"/>
<path d="M0 0 C2.31 0.66 4.62 1.32 7 2 C7 2.99 7 3.98 7 5 C4.69 4.67 2.38 4.34 0 4 C0 2.68 0 1.36 0 0 Z " fill="#0D040A" transform="translate(141,67)"/>
<path d="M0 0 C1.32 0 2.64 0 4 0 C3.67 5.28 3.34 10.56 3 16 C2.67 16 2.34 16 2 16 C2 12.04 2 8.08 2 4 C1.34 4 0.68 4 0 4 C0 2.68 0 1.36 0 0 Z " fill="#872E6B" transform="translate(136,28)"/>
<path d="M0 0 C1.98 0.66 3.96 1.32 6 2 C6 3.32 6 4.64 6 6 C4.68 5.67 3.36 5.34 2 5 C2 4.34 2 3.68 2 3 C0.68 2.67 -0.64 2.34 -2 2 C-1.34 1.34 -0.68 0.68 0 0 Z " fill="#11060D" transform="translate(134,64)"/>
<path d="M0 0 C-2.25 2.5625 -2.25 2.5625 -5 5 C-7.3125 4.8125 -7.3125 4.8125 -9 4 C-8.67 3.01 -8.34 2.02 -8 1 C-2.59770115 -1.29885057 -2.59770115 -1.29885057 0 0 Z " fill="#943376" transform="translate(40,117)"/>
<path d="M0 0 C5.75 1.75 5.75 1.75 8 4 C5.6875 4.625 5.6875 4.625 3 5 C2.01 4.34 1.02 3.68 0 3 C0 2.01 0 1.02 0 0 Z " fill="#0D040A" transform="translate(114,64)"/>
<path d="M0 0 C1.32 0 2.64 0 4 0 C4 0.99 4 1.98 4 3 C3.34 3 2.68 3 2 3 C2 6.63 2 10.26 2 14 C1.67 14 1.34 14 1 14 C0.67 9.38 0.34 4.76 0 0 Z " fill="#A0377F" transform="translate(99,27)"/>
<path d="M0 0 C-0.33 1.32 -0.66 2.64 -1 4 C-1.99 4 -2.98 4 -4 4 C-4 3.34 -4 2.68 -4 2 C-4.66 2 -5.32 2 -6 2 C-6 1.34 -6 0.68 -6 0 C-3 -1 -3 -1 0 0 Z " fill="#872E6C" transform="translate(191,90)"/>
<path d="M0 0 C2.31 0.33 4.62 0.66 7 1 C7 1.99 7 2.98 7 4 C4.97954558 3.39816251 2.97888961 2.72693904 1 2 C0.67 1.34 0.34 0.68 0 0 Z " fill="#12060E" transform="translate(186,65)"/>
</svg>
